{
.appVersion = "3135";
.formatVersion = 3;
date = "2022-08-29 02:00:34 +0000";
familyName = "Deshret Inscription";
fontMaster = (
{
id = m01;
metricValues = (
{
pos = 960;
},
{
pos = 800;
},
{
},
{
pos = -160;
}
);
name = Regular;
}
);
glyphs = (
{
glyphname = A;
lastChange = "2022-09-04 10:11:12 +0000";
layers = (
{
layerId = m01;
shapes = (
{
closed = 1;
nodes = (
(50,700,l),
(250,700,l),
(250,800,l),
(50,800,l)
);
},
{
closed = 1;
nodes = (
(850,700,l),
(1050,700,l),
(1050,800,l),
(850,800,l)
);
},
{
closed = 1;
nodes = (
(250,575,l),
(50,575,l),
(50,475,l),
(150,475,l),
(150,200,o),
(250,0,o),
(550,0,cs),
(850,0,o),
(950,200,o),
(950,475,c),
(1050,475,l),
(1050,575,l),
(850,575,l),
(850,475,l),
(850,250,o),
(750,100,o),
(550,100,cs),
(350,100,o),
(250,250,o),
(250,475,c)
);
},
{
pos = (450,700);
ref = bread;
scale = (0.6667,0.6667);
},
{
pos = (425,400);
ref = bread;
scale = (0.8333,0.8333);
}
);
width = 1100;
}
);
unicode = 65;
},
{
glyphname = B;
lastChange = "2022-10-30 12:21:52 +0000";
layers = (
{
layerId = m01;
shapes = (
{
closed = 1;
nodes = (
(100,0,o),
(150,0,o),
(250,50,cs),
(300,75,o),
(375,100,o),
(350,150,cs),
(325,200,o),
(150,75,o),
(150,150,cs),
(150,275,o),
(175,400,o),
(325,475,cs),
(475,550,o),
(625,450,o),
(675,400,c),
(725,475,l),
(675,525,o),
(525,675,o),
(275,550,cs),
(125,475,o),
(50,325,o),
(50,150,cs),
(50,75,o),
(50,50,o),
(75,25,cs)
);
},
{
closed = 1;
nodes = (
(750,575,o),
(725,575,o),
(675,500,cs),
(375,50,ls),
(344,3,o),
(400,0,o),
(425,0,cs),
(800,0,l),
(800,75,o),
(775,100,o),
(750,100,cs),
(600,100,ls),
(575,100,o),
(550,100,o),
(600,175,cs),
(850,550,ls),
(859,563,o),
(825,575,o),
(800,575,cs)
);
},
{
closed = 1;
nodes = (
(325,375,o),
(225,275,o),
(250,250,c),
(500,350,l),
(475,400,o),
(425,425,o),
(375,400,cs)
);
},
{
closed = 1;
nodes = (
(525,875,l),
(450,800,o),
(475,650,o),
(625,650,cs),
(775,650,o),
(800,800,o),
(725,875,c),
(625,775,l)
);
}
);
width = 900;
}
);
unicode = 66;
},
{
glyphname = C;
lastChange = "2022-09-06 02:44:55 +0000";
layers = (
{
layerId = m01;
shapes = (
{
closed = 1;
nodes = (
(125,550,o),
(125,550,o),
(125,500,cs),
(125,0,l),
(300,0,l),
(775,475,l),
(775,575,o),
(725,600,o),
(625,600,cs),
(600,600,o),
(575,600,o),
(550,600,cs),
(500,600,o),
(500,775,o),
(300,775,cs),
(225,775,o),
(150,750,o),
(150,750,c),
(150,800,l),
(50,800,l),
(50,700,l),
(50,650,o),
(75,625,o),
(125,625,cs),
(175,625,o),
(175,675,o),
(300,675,cs),
(425,675,o),
(425,500,o),
(500,500,cs),
(675,500,l),
(425,250,l),
(425,250,o),
(425,300,o),
(425,350,cs),
(425,400,o),
(425,400,o),
(375,400,cs),
(325,400,o),
(325,400,o),
(325,350,cs),
(325,175,l),
(225,75,l),
(225,225,o),
(225,450,o),
(225,500,cs),
(225,550,o),
(225,550,o),
(175,550,cs)
);
},
{
closed = 1;
nodes = (
(625,0,l),
(725,0,l),
(725,200,l),
(625,200,l)
);
}
);
width = 825;
}
);
unicode = 67;
},
{
glyphname = D;
lastChange = "2022-09-05 05:14:42 +0000";
layers = (
{
layerId = m01;
shapes = (
{
closed = 1;
nodes = (
(50,600,o),
(50,300,o),
(50,200,cs),
(50,75,o),
(125,0,o),
(250,0,cs),
(450,0,l),
(450,100,l),
(450,100,o),
(275,100,o),
(275,100,cs),
(200,100,o),
(150,150,o),
(150,225,cs),
(150,550,l),
(450,750,l),
(450,800,l),
(50,800,l)
);
},
{
closed = 1;
nodes = (
(550,0,l),
(650,0,l),
(650,117,o),
(650,300,o),
(650,350,cs),
(650,400,o),
(750,400,o),
(750,450,cs),
(750,500,o),
(750,700,o),
(750,750,cs),
(750,800,o),
(750,800,o),
(700,800,cs),
(550,800,l)
);
}
);
width = 800;
}
);
unicode = 68;
},
{
glyphname = E;
lastChange = "2022-10-27 08:50:48 +0000";
layers = (
{
layerId = m01;
shapes = (
{
closed = 1;
nodes = (
(50,400,l),
(500,400,l),
(500,600,l),
(400,600,l),
(400,500,l),
(150,500,l),
(150,700,l),
(700,700,l),
(700,100,l),
(50,100,l),
(50,0,l),
(800,0,l),
(800,800,l),
(50,800,l)
);
},
{
closed = 1;
nodes = (
(50,200,l),
(500,200,l),
(500,300,l),
(50,300,l)
);
}
);
width = 850;
}
);
unicode = 69;
},
{
glyphname = F;
lastChange = "2023-03-18 16:44:08 +0000";
layers = (
{
layerId = m01;
shapes = (
{
closed = 1;
nodes = (
(0,0,o),
(125,-25,o),
(200,25,c),
(450,200,l),
(700,25,l),
(775,-25,o),
(825,-1,o),
(825,100,cs),
(825,200,o),
(825,772,o),
(825,800,cs),
(825,875,o),
(800,850,o),
(775,825,cs),
(725,775,o),
(550,600,o),
(525,575,cs),
(500,550,o),
(487,525,o),
(550,525,cs),
(637,525,o),
(662,525,o),
(675,525,cs),
(737,525,o),
(725,526,o),
(725,475,cs),
(725,125,l),
(450,325,l),
(100,75,l)
);
},
{
closed = 1;
nodes = (
(125,625,o),
(100,649,o),
(100,700,cs),
(100,758,o),
(142,800,o),
(200,800,cs),
(258,800,o),
(300,758,o),
(300,700,cs),
(300,650,o),
(275,625,o),
(275,625,c),
(125,625,l)
);
},
{
closed = 1;
nodes = (
(255,300,o),
(300,345,o),
(300,400,cs),
(300,455,o),
(255,500,o),
(200,500,cs),
(145,500,o),
(100,455,o),
(100,400,cs),
(100,345,o),
(145,300,o),
(200,300,cs)
);
}
);
width = 875;
}
);
unicode = 70;
},
{
glyphname = G;
lastChange = "2022-09-05 05:31:56 +0000";
layers = (
{
layerId = m01;
shapes = (
{
closed = 1;
nodes = (
(50,875,l),
(50,325,l),
(150,400,l),
(150,950,l)
);
},
{
closed = 1;
nodes = (
(200,675,l),
(200,675,o),
(275,700,o),
(450,700,cs),
(625,700,o),
(700,625,o),
(700,450,cs),
(700,225,o),
(350,50,o),
(350,50,c),
(475,50,l),
(475,50,o),
(800,175,o),
(800,450,cs),
(800,675,o),
(675,800,o),
(450,800,cs),
(300,800,o),
(200,775,o),
(200,775,cs)
);
},
{
closed = 1;
nodes = (
(75,25,l),
(100,0,l),
(825,0,l),
(775,100,l),
(100,100,l)
);
},
{
closed = 1;
nodes = (
(505,350,o),
(550,395,o),
(550,450,cs),
(550,505,o),
(505,550,o),
(450,550,cs),
(395,550,o),
(350,505,o),
(350,450,cs),
(350,395,o),
(395,350,o),
(450,350,cs)
);
}
);
width = 875;
}
);
unicode = 71;
},
{
glyphname = H;
lastChange = "2022-09-05 03:39:41 +0000";
layers = (
{
layerId = m01;
shapes = (
{
closed = 1;
nodes = (
(50,425,o),
(200,525,o),
(200,375,cs),
(200,0,l),
(300,0,l),
(300,133,o),
(300,450,o),
(300,450,cs),
(300,550,o),
(250,600,o),
(150,600,cs),
(100,600,o),
(50,575,o),
(50,525,cs)
);
},
{
closed = 1;
nodes = (
(450,725,o),
(600,825,o),
(600,675,cs),
(600,0,l),
(700,0,l),
(700,125,o),
(700,750,o),
(700,750,cs),
(700,850,o),
(650,900,o),
(550,900,cs),
(500,900,o),
(450,875,o),
(450,825,cs)
);
},
{
pos = (975,550);
ref = droplet;
scale = (-0.8333,0.7143);
},
{
pos = (50,600);
ref = droplet;
scale = (0.8333,0.7143);
},
{
pos = (575,250);
ref = droplet;
scale = (-0.8333,0.7143);
},
{
closed = 1;
nodes = (
(950,0,l),
(950,375,l),
(900,375,o),
(850,325,o),
(850,225,cs),
(850,0,l)
);
}
);
width = 1025;
}
);
unicode = 72;
},
{
glyphname = I;
lastChange = "2022-09-05 05:27:23 +0000";
layers = (
{
layerId = m01;
shapes = (
{
closed = 1;
nodes = (
(275,775,o),
(75,575,o),
(75,575,cs),
(41,538,o),
(41,513,o),
(75,475,cs),
(75,475,o),
(250,300,o),
(250,300,cs),
(278,275,o),
(278,275,o),
(250,250,cs),
(75,75,ls),
(3,0,o),
(128,-25,o),
(175,25,cs),
(175,25,o),
(375,225,o),
(375,225,cs),
(416,263,o),
(416,288,o),
(375,325,cs),
(375,325,o),
(200,500,o),
(200,500,cs),
(178,525,o),
(178,525,o),
(200,550,cs),
(200,550,o),
(375,725,o),
(375,725,cs),
(453,800,o),
(328,825,o),
(275,775,cs)
);
},
{
closed = 1;
nodes = (
(503,750,o),
(628,725,o),
(550,650,cs),
(550,650,o),
(425,525,o),
(425,525,cs),
(378,475,o),
(228,475,o),
(325,575,cs),
(450,700,l)
);
},
{
closed = 1;
nodes = (
(503,275,o),
(628,250,o),
(550,175,cs),
(478,100,o),
(425,50,o),
(425,50,cs),
(378,0,o),
(228,0,o),
(325,100,cs),
(450,225,l)
);
}
);
width = 625;
}
);
unicode = 73;
},
{
glyphname = J;
lastChange = "2022-09-04 10:00:53 +0000";
layers = (
{
layerId = m01;
shapes = (
{
closed = 1;
nodes = (
(450,875,l),
(450,325,l),
(525,300,l),
(550,325,l),
(550,900,l)
);
},
{
closed = 1;
nodes = (
(450,75,l),
(450,-25,l),
(500,-50,l),
(550,-25,l),
(550,75,l),
(500,100,l)
);
},
{
closed = 1;
nodes = (
(725,150,o),
(850,250,o),
(950,350,c),
(875,425,l),
(800,350,o),
(675,250,o),
(500,250,cs),
(325,250,o),
(200,350,o),
(125,425,c),
(50,350,l),
(150,250,o),
(275,150,o),
(500,150,cs)
);
}
);
width = 1000;
}
);
unicode = 74;
},
{
glyphname = K;
lastChange = "2022-09-04 10:06:28 +0000";
layers = (
{
layerId = m01;
shapes = (
{
closed = 1;
nodes = (
(50,850,l),
(50,400,l),
(275,400,l),
(100,100,l),
(200,0,l),
(200,0,o),
(375,375,o),
(400,425,cs),
(425,475,o),
(425,500,o),
(350,500,cs),
(150,500,l),
(150,875,l),
(125,900,l)
);
},
{
closed = 1;
nodes = (
(200,650,l),
(200,625,l),
(675,625,l),
(675,650,l),
(650,725,l),
(275,725,l)
);
},
{
closed = 1;
nodes = (
(500,-50,l),
(600,-100,l),
(600,675,l),
(500,675,l)
);
}
);
width = 725;
}
);
unicode = 75;
},
{
glyphname = L;
lastChange = "2022-09-04 10:10:39 +0000";
layers = (
{
layerId = m01;
shapes = (
{
closed = 1;
nodes = (
(50,700,l),
(750,700,l),
(750,850,l),
(600,850,l),
(600,800,o),
(525,800,o),
(475,800,c),
(475,850,l),
(325,850,l),
(325,800,l),
(275,800,o),
(200,800,o),
(200,850,c),
(50,850,l)
);
},
{
closed = 1;
nodes = (
(350,-100,l),
(450,-25,l),
(450,650,l),
(350,650,l)
);
},
{
closed = 1;
nodes = (
(500,175,l),
(675,375,l),
(500,575,l)
);
}
);
width = 800;
}
);
unicode = 76;
},
{
glyphname = M;
lastChange = "2022-09-05 05:32:38 +0000";
layers = (
{
layerId = m01;
shapes = (
{
closed = 1;
nodes = (
(50,150,o),
(175,0,o),
(350,0,cs),
(350,0,o),
(350,50,o),
(375,100,cs),
(400,151,o),
(450,175,o),
(450,175,c),
(400,225,l),
(400,225,o),
(275,150,o),
(275,150,cs),
(225,150,o),
(150,175,o),
(150,400,cs),
(150,575,o),
(250,650,o),
(325,725,c),
(250,800,l),
(175,725,o),
(50,600,o),
(50,400,cs)
);
},
{
closed = 1;
nodes = (
(1050,600,o),
(925,725,o),
(850,800,c),
(775,725,l),
(850,650,o),
(950,575,o),
(950,400,cs),
(950,175,o),
(875,150,o),
(825,150,cs),
(825,150,o),
(700,225,o),
(700,225,c),
(650,175,l),
(650,175,o),
(700,151,o),
(725,100,cs),
(750,50,o),
(750,0,o),
(750,0,cs),
(925,0,o),
(1050,150,o),
(1050,400,cs)
);
},
{
closed = 1;
nodes = (
(400,25,l),
(425,-50,l),
(675,-50,l),
(700,25,l),
(600,175,l),
(500,175,l)
);
},
{
closed = 1;
nodes = (
(605,300,o),
(650,345,o),
(650,400,cs),
(650,455,o),
(605,500,o),
(550,500,cs),
(495,500,o),
(450,455,o),
(450,400,cs),
(450,345,o),
(495,300,o),
(550,300,cs)
);
},
{
closed = 1;
nodes = (
(550,100,l),
(600,25,l),
(500,25,l)
);
}
);
width = 1100;
}
);
unicode = 77;
},
{
glyphname = N;
lastChange = "2022-09-05 03:21:48 +0000";
layers = (
{
layerId = m01;
shapes = (
{
closed = 1;
nodes = (
(50,700,l),
(50,600,l),
(150,600,l),
(150,0,l),
(250,0,l),
(250,350,l),
(500,350,l),
(500,100,l),
(475,100,l),
(400,25,l),
(400,0,l),
(700,0,l),
(775,75,l),
(775,100,l),
(600,100,l),
(600,200,o),
(600,375,o),
(600,400,cs),
(600,425,o),
(575,450,o),
(550,450,cs),
(350,450,l),
(350,450,o),
(750,700,o),
(650,775,c),
(250,500,l),
(250,550,o),
(250,625,o),
(250,675,cs),
(250,725,o),
(275,750,o),
(325,750,cs),
(350,750,o),
(350,775,o),
(350,800,c),
(150,800,l)
);
},
{
angle = 37;
pos = (550,525);
ref = bread;
scale = (0.6667,-0.6667);
}
);
width = 825;
}
);
unicode = 78;
},
{
glyphname = O;
lastChange = "2023-03-18 14:21:34 +0000";
layers = (
{
layerId = m01;
shapes = (
{
closed = 1;
nodes = (
(275,900,o),
(50,675,o),
(50,400,cs),
(50,125,o),
(275,-100,o),
(550,-100,cs),
(825,-100,o),
(1050,125,o),
(1050,400,cs),
(1050,675,o),
(901,756,o),
(825,775,cs),
(772,788,o),
(700,775,o),
(700,750,cs),
(700,750,o),
(950,675,o),
(950,400,cs),
(950,181,o),
(769,0,o),
(550,0,cs),
(331,0,o),
(150,175,o),
(150,400,cs),
(150,625,o),
(300,725,o),
(425,750,c),
(450,675,l),
(350,650,o),
(250,556,o),
(250,400,cs),
(250,250,o),
(375,100,o),
(550,100,cs),
(700,100,o),
(750,225,o),
(750,225,c),
(675,250,l),
(675,250,o),
(650,200,o),
(550,200,cs),
(425,200,o),
(350,275,o),
(350,400,cs),
(350,525,o),
(450,600,o),
(550,600,c),
(550,900,l)
);
},
{
closed = 1;
nodes = (
(605,300,o),
(650,345,o),
(650,400,cs),
(650,455,o),
(605,500,o),
(550,500,cs),
(495,500,o),
(450,455,o),
(450,400,cs),
(450,345,o),
(495,300,o),
(550,300,cs)
);
}
);
width = 1100;
}
);
unicode = 79;
},
{
glyphname = P;
lastChange = "2023-02-10 16:30:07 +0000";
layers = (
{
layerId = m01;
shapes = (
{
closed = 1;
nodes = (
(100,0,l),
(400,0,l),
(800,700,l),
(1000,700,l),
(1000,800,l),
(725,800,l),
(325,100,l),
(100,100,l)
);
},
{
closed = 1;
nodes = (
(825,550,o),
(800,500,o),
(800,425,c),
(1000,425,l),
(1000,550,l)
);
},
{
closed = 1;
nodes = (
(625,825,l),
(625,825,o),
(550,875,o),
(350,875,cs),
(150,875,o),
(75,825,o),
(75,825,c),
(350,350,l)
);
},
{
closed = 1;
nodes = (
(225,750,l),
(225,750,o),
(250,775,o),
(350,775,cs),
(450,775,o),
(475,750,o),
(475,750,c),
(350,525,l)
);
}
);
width = 1050;
}
);
unicode = 80;
},
{
glyphname = Q;
lastChange = "2022-08-31 01:51:01 +0000";
layers = (
{
layerId = m01;
shapes = (
{
closed = 1;
nodes = (
(50,700,l),
(750,700,l),
(750,800,l),
(50,800,l)
);
},
{
closed = 1;
nodes = (
(50,350,l),
(650,350,l),
(650,0,l),
(750,0,l),
(750,450,l),
(150,450,l),
(150,600,l),
(50,600,l)
);
},
{
closed = 1;
nodes = (
(250,225,l),
(50,0,l),
(450,0,l)
);
}
);
width = 800;
}
);
unicode = 81;
},
{
glyphname = R;
lastChange = "2022-09-06 02:16:44 +0000";
layers = (
{
layerId = m01;
shapes = (
{
closed = 1;
nodes = (
(200,550,l),
(350,800,l),
(50,800,l)
);
},
{
closed = 1;
nodes = (
(350,650,l),
(625,650,l),
(625,650,o),
(525,275,o),
(500,175,cs),
(475,75,o),
(300,125,o),
(350,250,c),
(250,300,l),
(175,150,o),
(225,0,o),
(400,0,cs),
(550,0,l),
(750,800,l),
(425,800,l)
);
},
{
closed = 1;
nodes = (
(625,0,l),
(725,0,l),
(925,800,l),
(825,800,l)
);
}
);
width = 975;
}
);
unicode = 82;
},
{
glyphname = S;
lastChange = "2023-02-10 16:31:06 +0000";
layers = (
{
layerId = m01;
shapes = (
{
closed = 1;
nodes = (
(50,775,l),
(50,475,l),
(675,475,l),
(675,350,l),
(50,350,l),
(50,25,l),
(525,25,l),
(450,125,l),
(150,125,l),
(150,250,l),
(775,250,l),
(775,575,l),
(150,575,l),
(150,675,l),
(775,700,l),
(775,800,l)
);
},
{
closed = 1;
nodes = (
(500,175,l),
(650,0,l),
(800,175,l)
);
}
);
width = 850;
}
);
unicode = 83;
},
{
glyphname = T;
lastChange = "2022-09-17 12:43:26 +0000";
layers = (
{
layerId = m01;
shapes = (
{
closed = 1;
nodes = (
(50,700,l),
(800,700,l),
(800,800,l),
(50,800,l)
);
},
{
closed = 1;
nodes = (
(50,0,l),
(150,75,l),
(150,450,l),
(700,450,l),
(700,100,l),
(475,100,l),
(475,275,l),
(375,350,l),
(375,0,l),
(800,0,l),
(800,550,l),
(50,550,l)
);
}
);
width = 850;
}
);
unicode = 84;
},
{
glyphname = U;
lastChange = "2022-09-17 12:41:11 +0000";
layers = (
{
layerId = m01;
shapes = (
{
closed = 1;
nodes = (
(50,0,l),
(150,0,l),
(150,350,l),
(50,350,l)
);
},
{
closed = 1;
nodes = (
(700,0,l),
(800,0,l),
(800,350,l),
(700,350,l)
);
},
{
closed = 1;
nodes = (
(50,475,l),
(800,475,l),
(800,575,l),
(50,575,l)
);
},
{
closed = 1;
nodes = (
(50,700,l),
(800,700,l),
(800,800,l),
(50,800,l)
);
}
);
width = 850;
}
);
unicode = 85;
},
{
glyphname = W;
lastChange = "2022-09-16 12:12:43 +0000";
layers = (
{
layerId = m01;
shapes = (
{
closed = 1;
nodes = (
(150,100,l),
(400,100,l),
(450,0,l),
(100,0,l)
);
},
{
closed = 1;
nodes = (
(350,425,l),
(350,325,l),
(200,325,l),
(200,425,l)
);
},
{
closed = 1;
nodes = (
(50,700,o),
(200,650,o),
(250,650,cs),
(300,650,o),
(300,850,o),
(250,850,cs),
(200,850,o),
(50,800,o),
(50,750,cs)
);
},
{
closed = 1;
nodes = (
(100,200,l),
(450,200,l),
(450,600,l),
(550,600,l),
(550,475,o),
(550,275,o),
(550,250,cs),
(550,225,o),
(500,250,o),
(525,200,cs),
(550,150,o),
(600,50,o),
(625,0,cs),
(650,-50,o),
(650,0,o),
(650,25,cs),
(650,700,l),
(350,700,l),
(350,500,l),
(200,500,l),
(200,600,l),
(100,650,l)
);
}
);
width = 700;
}
);
unicode = 87;
},
{
glyphname = X;
lastChange = "2022-10-27 08:45:56 +0000";
layers = (
{
layerId = m01;
shapes = (
{
closed = 1;
nodes = (
(50,700,l),
(450,700,l),
(100,0,l),
(225,0,l),
(575,700,ls),
(600,750,o),
(575,800,o),
(500,800,cs),
(125,800,l)
);
},
{
closed = 1;
nodes = (
(350,425,l),
(625,0,l),
(750,0,l),
(400,525,l)
);
},
{
closed = 1;
nodes = (
(716,425,o),
(750,459,o),
(750,500,cs),
(750,541,o),
(716,575,o),
(675,575,cs),
(634,575,o),
(600,541,o),
(600,500,cs),
(600,459,o),
(634,425,o),
(675,425,cs)
);
}
);
width = 800;
}
);
unicode = 88;
},
{
glyphname = Y;
lastChange = "2022-10-27 08:46:27 +0000";
layers = (
{
layerId = m01;
shapes = (
{
closed = 1;
nodes = (
(150,600,l),
(325,600,o),
(575,600,o),
(600,600,cs),
(625,600,o),
(650,575,o),
(650,550,cs),
(650,525,o),
(650,75,o),
(650,75,cs),
(650,-25,o),
(750,-100,o),
(750,-100,c),
(825,-25,l),
(825,-25,o),
(750,25,o),
(750,125,cs),
(750,125,o),
(750,549,o),
(750,550,cs),
(750,650,o),
(700,700,o),
(600,700,cs),
(150,700,l)
);
},
{
closed = 1;
nodes = (
(700,350,o),
(400,350,o),
(400,350,cs),
(150,350,o),
(50,250,o),
(50,0,c),
(150,0,l),
(150,200,o),
(200,250,o),
(400,250,cs),
(700,250,l),
(700,350,l)
);
},
{
closed = 1;
nodes = (
(350,300,l),
(450,300,l),
(450,825,l),
(350,900,l)
);
},
{
closed = 1;
nodes = (
(241,375,o),
(275,409,o),
(275,450,cs),
(275,491,o),
(241,525,o),
(200,525,cs),
(159,525,o),
(125,491,o),
(125,450,cs),
(125,409,o),
(159,375,o),
(200,375,cs)
);
}
);
width = 875;
}
);
unicode = 89;
},
{
glyphname = Z;
lastChange = "2022-10-27 08:53:22 +0000";
layers = (
{
layerId = m01;
shapes = (
{
closed = 1;
nodes = (
(225,800,o),
(50,625,o),
(50,600,cs),
(50,425,l),
(75,425,o),
(225,625,o),
(250,625,cs),
(275,625,o),
(425,425,o),
(450,425,cs),
(475,425,o),
(625,625,o),
(650,625,cs),
(675,625,o),
(825,425,o),
(850,425,c),
(850,450,o),
(850,575,o),
(850,600,cs),
(850,625,o),
(675,800,o),
(650,800,cs),
(625,800,o),
(475,600,o),
(450,600,cs),
(425,600,o),
(275,800,o),
(250,800,cs)
);
},
{
closed = 1;
nodes = (
(225,375,o),
(50,200,o),
(50,175,cs),
(50,0,l),
(75,0,o),
(225,200,o),
(250,200,cs),
(275,200,o),
(425,0,o),
(450,0,cs),
(475,0,o),
(625,200,o),
(650,200,cs),
(675,200,o),
(825,0,o),
(850,0,c),
(850,25,o),
(850,150,o),
(850,175,cs),
(850,200,o),
(675,375,o),
(650,375,cs),
(625,375,o),
(475,175,o),
(450,175,cs),
(425,175,o),
(275,375,o),
(250,375,cs)
);
}
);
width = 900;
}
);
unicode = 90;
},
{
glyphname = bread;
lastChange = "2022-08-29 02:56:56 +0000";
layers = (
{
layerId = m01;
shapes = (
{
closed = 1;
nodes = (
(0,0,l),
(0,100,o),
(50,150,o),
(150,150,cs),
(250,150,o),
(300,100,o),
(300,0,c),
(150,0,l)
);
}
);
width = 300;
}
);
unicode = 127838;
},
{
glyphname = droplet;
lastChange = "2022-09-05 03:33:19 +0000";
layers = (
{
layerId = m01;
shapes = (
{
closed = 1;
nodes = (
(0,175,o),
(150,175,o),
(225,100,cs),
(275,50,o),
(300,0,o),
(300,0,cs),
(300,0,o),
(300,100,o),
(300,100,cs),
(300,275,o),
(225,350,o),
(125,350,cs),
(50,350,o),
(0,300,o),
(0,250,cs)
);
}
